<svg xmlns="http://www.w3.org/2000/svg" viewBox="0 0 789.51 375.37"><defs><style>.cls-1{fill:#4d4d4d;}</style></defs><g id="Capa_2" data-name="Capa 2"><g id="Capa_2-2" data-name="Capa 2"><path class="cls-1" d="M301.56,232.23A31.08,31.08,0,0,1,291,226.51a58.67,58.67,0,0,1-8.85-9.75l12.36-10.27q5.32,7.41,10.33,10.47a23.41,23.41,0,0,0,12.42,3q10.26,0,14.95-3t4.68-9.62a7.37,7.37,0,0,0-2.21-5.52c-1.48-1.43-4-2.75-7.61-4a150.57,150.57,0,0,0-16.06-4q-12.48-2.59-18.52-9.29t-6-17.88a24.26,24.26,0,0,1,4.1-14,26.34,26.34,0,0,1,11.64-9.23,44.09,44.09,0,0,1,17.54-3.25q13,0,20.67,3.84a31.46,31.46,0,0,1,12.49,11.24l-12.09,9.88a89.88,89.88,0,0,0-6.7-6.17,20,20,0,0,0-6-3.32,25.72,25.72,0,0,0-8.33-1.17q-7.4,0-11.17,3.25t-3.78,9.36a8.92,8.92,0,0,0,4.82,8.39,46.38,46.38,0,0,0,12.34,4.35,129,129,0,0,1,17.82,4.81,25.39,25.39,0,0,1,11,7.93q4.41,5.46,4.42,14.95,0,13.53-9.43,20.15t-28.53,6.63A50.48,50.48,0,0,1,301.56,232.23Z"/><path class="cls-1" d="M424.8,219.36a18.72,18.72,0,0,0,4.87,4.81l-11.31,9.88a26.91,26.91,0,0,1-6.76-4.68,16.61,16.61,0,0,1-3.77-5.85q-6,10.8-18.59,10.79-10.26,0-15.86-5.46t-5.59-15.6v-41.6h16.9v40a9.62,9.62,0,0,0,2.54,7,9.24,9.24,0,0,0,6.95,2.6q8.58,0,12.35-11.18V171.65h16.9v42A10.74,10.74,0,0,0,424.8,219.36Z"/><path class="cls-1" d="M458.66,226.77v6h-16.9V155.66a10.77,10.77,0,0,0-1.36-5.72,19.1,19.1,0,0,0-4.88-4.81l11.31-9.88q6.63,3.39,9.23,7.74t2.6,12.15V178q6.76-7.92,18.85-7.93a25.48,25.48,0,0,1,14.63,4.1,25,25,0,0,1,9,10.92,36.88,36.88,0,0,1,3,15v4.16a36.93,36.93,0,0,1-3,15,25,25,0,0,1-9,10.92,25.47,25.47,0,0,1-14.63,4.09Q465.3,234.31,458.66,226.77Zm24.83-10.4a19.29,19.29,0,0,0,3.77-12.09v-4.16A19.33,19.33,0,0,0,483.49,188q-3.76-4.93-10.92-4.94-10.92,0-13.91,10.66v16.9q3,10.66,13.91,10.66Q479.73,221.31,483.49,216.37Z"/><path class="cls-1" d="M533.8,184.65v25.22q0,5.46,1.69,7.67c1.13,1.48,3,2.21,5.72,2.21h10.27v13H541.21q-9.09,0-14.36-2.21a14.12,14.12,0,0,1-7.61-7.15q-2.34-4.94-2.34-13.52V162.16a10.77,10.77,0,0,0-1.36-5.72,19.1,19.1,0,0,0-4.88-4.81L522,141.75q6.63,3.39,9.23,7.74t2.6,12.15v10h17.68v13Z"/><path class="cls-1" d="M596.59,220.34a23.78,23.78,0,0,0,6.5-4.36l10,9.1q-7.53,9.24-24.31,9.23-14.94,0-21.58-5.65t-6.63-18.4V191.67q0-10,7.22-15.79t19.69-5.79q12.87,0,20.15,6.18t7.28,18a31.08,31.08,0,0,1-1,8.84,7.56,7.56,0,0,1-3.84,4.62c-1.9,1-4.68,1.49-8.32,1.49H577.35v1.17q0,11.19,11.44,11.18A20.76,20.76,0,0,0,596.59,220.34ZM580,185.63a10.18,10.18,0,0,0-2.67,7.34v4.68h14.82c2.26,0,3.82-.34,4.68-1s1.3-1.9,1.3-3.64q0-4.93-2.73-7.54t-7.93-2.6A9.84,9.84,0,0,0,580,185.63Z"/><path class="cls-1" d="M672.38,173.73l-4.16,14a21,21,0,0,0-5.19-2.6,20.61,20.61,0,0,0-6.12-.78q-8.58,0-12.34,11.44v36.92H627.66V190.5a10.77,10.77,0,0,0-1.36-5.72,19.1,19.1,0,0,0-4.88-4.81l11.31-9.88a29.18,29.18,0,0,1,7,4.94,15.45,15.45,0,0,1,3.78,6.24,22.16,22.16,0,0,1,6.88-8.12,17.68,17.68,0,0,1,10.53-3.06A18.1,18.1,0,0,1,672.38,173.73Z"/><path class="cls-1" d="M726.59,173.73l-4.16,14a20.85,20.85,0,0,0-5.2-2.6,20.5,20.5,0,0,0-6.11-.78q-8.58,0-12.35,11.44v36.92h-16.9V190.5a10.77,10.77,0,0,0-1.36-5.72,19.1,19.1,0,0,0-4.88-4.81l11.31-9.88a29.18,29.18,0,0,1,7,4.94,15.32,15.32,0,0,1,3.77,6.24,22.28,22.28,0,0,1,6.89-8.12,17.66,17.66,0,0,1,10.53-3.06A18.1,18.1,0,0,1,726.59,173.73Z"/><path class="cls-1" d="M784.64,219.62a18.72,18.72,0,0,0,4.87,4.81l-11.31,9.88q-7.41-3.76-10.14-9.49a23,23,0,0,1-7.8,6.76A25,25,0,0,1,748,234.31q-9.22,0-14.69-4.74t-5.46-13.46q0-7.8,4.1-12a21.3,21.3,0,0,1,9.42-5.79,65.89,65.89,0,0,1,11.83-2.21l6.24-.65a13.63,13.63,0,0,0,5.27-1.3,3.51,3.51,0,0,0,1.62-3,11.25,11.25,0,0,0-2.53-6.63q-2.28-2.73-8.65-2.73a16.09,16.09,0,0,0-7.28,1.56,23,23,0,0,0-6.37,5.07L730,180.36a25.12,25.12,0,0,1,9.49-7.6q5.73-2.67,15.73-2.67,28.08,0,28.08,22.75V213.9A10.74,10.74,0,0,0,784.64,219.62Zm-21.91-.71a10.56,10.56,0,0,0,3.64-8.13v-5.46a38.53,38.53,0,0,1-7.93,1.43l-3.9.39a19,19,0,0,0-7.41,2c-2,1.08-3,3.1-3,6a6.35,6.35,0,0,0,2.21,5.2,9.09,9.09,0,0,0,6,1.82Q759.1,222.22,762.73,218.91Z"/><path class="cls-1" d="M155.87,167.31v40.76a8,8,0,0,0,4,6.93l28.79,16.62a4,4,0,0,1,2,3.47v10.77a4,4,0,0,1-6,3.46L146,227a15,15,0,0,1-7.5-13V161.36a15,15,0,0,1,7.5-13l38.62-22.3a4,4,0,0,1,6,3.46v10.76a4,4,0,0,1-2,3.46l-28.79,16.63A8,8,0,0,0,155.87,167.31Z"/><path class="cls-1" d="M259.78,161.36V214a15,15,0,0,1-7.5,13l-38.62,22.29a4,4,0,0,1-6-3.46V235.1a4,4,0,0,1,2-3.47L238.48,215a8,8,0,0,0,4-6.93V167.31a8,8,0,0,0-4-6.93l-28.82-16.64a4,4,0,0,1-2-3.46V129.53a4,4,0,0,1,6-3.46l38.62,22.3A15,15,0,0,1,259.78,161.36Z"/><path class="cls-1" d="M183,28.36,137.39,2a15,15,0,0,0-15,0L76.77,28.36a15,15,0,0,0-7.5,13V94a15,15,0,0,0,7.5,13l45.62,26.34a15,15,0,0,0,15,0L183,107a15,15,0,0,0,7.5-13V41.35A15,15,0,0,0,183,28.36Zm-9.81,59.7a8,8,0,0,1-4,6.93l-35.3,20.38a8,8,0,0,1-8,0L90.61,95a8,8,0,0,1-4-6.93V47.3a8,8,0,0,1,4-6.93L125.91,20a8,8,0,0,1,8,0l35.3,20.38a8,8,0,0,1,4,6.93Z"/><path class="cls-1" d="M321.6,268.35,276,242a15,15,0,0,0-15,0l-45.63,26.34a15,15,0,0,0-7.5,13V334a15,15,0,0,0,7.5,13L261,373.35a15,15,0,0,0,15,0L321.6,347a15,15,0,0,0,7.5-13V281.34A15,15,0,0,0,321.6,268.35Zm-9.8,59.7a8,8,0,0,1-4,6.93l-35.31,20.38a8,8,0,0,1-8,0L229.19,335a8,8,0,0,1-4-6.93V287.29a8,8,0,0,1,4-6.93L264.49,260a8,8,0,0,1,8,0l35.31,20.38a8,8,0,0,1,4,6.93Z"/><path class="cls-1" d="M113.74,148.36,68.12,122a15,15,0,0,0-15,0L7.5,148.36a15,15,0,0,0-7.5,13V214a15,15,0,0,0,7.5,13l45.62,26.34a15,15,0,0,0,15,0L113.74,227a15,15,0,0,0,7.5-13V161.36A15,15,0,0,0,113.74,148.36Zm-9.82,59.7a8,8,0,0,1-4,6.92l-35.3,20.39a8,8,0,0,1-8,0L21.32,215a8,8,0,0,1-4-6.92V167.29a8,8,0,0,1,4-6.92L56.62,140a8,8,0,0,1,8,0l35.3,20.39a8,8,0,0,1,4,6.92Z"/><path class="cls-1" d="M183,268.36,137.41,242a15,15,0,0,0-15,0L76.79,268.36a15,15,0,0,0-7.5,13V334a15,15,0,0,0,7.5,13l45.62,26.34a15,15,0,0,0,15,0L183,347a15,15,0,0,0,7.5-13V281.35A15,15,0,0,0,183,268.36Zm-9.83,59.7a8,8,0,0,1-4,6.93l-35.31,20.38a8,8,0,0,1-8,0L90.59,335a8,8,0,0,1-4-6.93V287.3a8,8,0,0,1,4-6.93L125.89,260a8,8,0,0,1,8,0l35.31,20.38a8,8,0,0,1,4,6.93Z"/><path class="cls-1" d="M321.58,28.35,276,2a15,15,0,0,0-15,0L215.34,28.35a15,15,0,0,0-7.5,13V94a15,15,0,0,0,7.5,13L261,133.35a15,15,0,0,0,15,0L321.58,107a15,15,0,0,0,7.5-13V41.34A15,15,0,0,0,321.58,28.35Zm-9.84,59.7a8,8,0,0,1-4,6.93l-35.3,20.38a8,8,0,0,1-8,0L229.14,95a8,8,0,0,1-4-6.93V47.29a8,8,0,0,1,4-6.93L264.44,20a8,8,0,0,1,8,0l35.3,20.38a8,8,0,0,1,4,6.93Z"/></g></g></svg>