<svg xmlns="http://www.w3.org/2000/svg" viewBox="0 0 121.24 124.34"><defs><style>.cls-1{fill:#fff;}</style></defs><g id="Capa_2" data-name="Capa 2"><g id="Capa_2-2" data-name="Capa 2"><path class="cls-1" d="M17.33,41.78V82.54a8,8,0,0,0,4,6.93l28.79,16.62a4,4,0,0,1,2,3.47v10.77a4,4,0,0,1-6,3.46L7.5,101.5a15,15,0,0,1-7.5-13V35.83a15,15,0,0,1,7.5-13L46.12.54a4,4,0,0,1,6,3.47V14.76a4,4,0,0,1-2,3.46L21.33,34.85A8,8,0,0,0,17.33,41.78Z"/><path class="cls-1" d="M121.24,35.83V88.51a15,15,0,0,1-7.5,13L75.12,123.79a4,4,0,0,1-6-3.46V109.57a4,4,0,0,1,2-3.47L99.94,89.47a8,8,0,0,0,4-6.93V41.78a8,8,0,0,0-4-6.93L71.12,18.21a4,4,0,0,1-2-3.46V4a4,4,0,0,1,6-3.47l38.62,22.3A15,15,0,0,1,121.24,35.83Z"/></g></g></svg>