<svg xmlns="http://www.w3.org/2000/svg" viewBox="0 0 650.97 124.34"><defs><style>.cls-1{fill:#fff;}</style></defs><g id="Capa_2" data-name="Capa 2"><g id="Capa_2-2" data-name="Capa 2"><path class="cls-1" d="M163,106.7a31.29,31.29,0,0,1-10.6-5.71,59.47,59.47,0,0,1-8.84-9.75L155.93,81q5.34,7.41,10.34,10.46a23.37,23.37,0,0,0,12.41,3.06q10.27,0,14.95-3t4.68-9.62a7.33,7.33,0,0,0-2.21-5.52c-1.47-1.43-4-2.75-7.6-4a145.81,145.81,0,0,0-16.06-4q-12.48-2.61-18.52-9.3t-6-17.87a24.21,24.21,0,0,1,4.1-14,26.32,26.32,0,0,1,11.63-9.24,44.18,44.18,0,0,1,17.55-3.25q13,0,20.67,3.84A31.51,31.51,0,0,1,214.3,29.74l-12.09,9.88a90.07,90.07,0,0,0-6.69-6.17,19.74,19.74,0,0,0-6.05-3.31A25.61,25.61,0,0,0,181.15,29q-7.41,0-11.18,3.25t-3.77,9.35A8.92,8.92,0,0,0,171,50a46.93,46.93,0,0,0,12.35,4.36,127.53,127.53,0,0,1,17.81,4.8,25.27,25.27,0,0,1,11.05,7.94q4.42,5.46,4.42,14.94,0,13.53-9.42,20.16t-28.54,6.62A50.45,50.45,0,0,1,163,106.7Z"/><path class="cls-1" d="M286.26,93.83a18.89,18.89,0,0,0,4.87,4.82l-11.31,9.88a27.44,27.44,0,0,1-6.76-4.68A16.6,16.6,0,0,1,269.29,98q-6,10.8-18.59,10.79-10.27,0-15.86-5.46t-5.59-15.59V46.12h16.9v40a9.66,9.66,0,0,0,2.54,7,9.26,9.26,0,0,0,6.95,2.59q8.58,0,12.35-11.17V46.12h16.9v42A10.73,10.73,0,0,0,286.26,93.83Z"/><path class="cls-1" d="M320.12,101.24v6h-16.9V30.14a10.78,10.78,0,0,0-1.36-5.73,18.93,18.93,0,0,0-4.88-4.8l11.31-9.88q6.63,3.38,9.23,7.73c1.73,2.91,2.6,7,2.6,12.16V52.49q6.76-7.92,18.85-7.92a25.47,25.47,0,0,1,14.63,4.09,25,25,0,0,1,9,10.92,37.09,37.09,0,0,1,3,15v4.15a37.06,37.06,0,0,1-3,15,25,25,0,0,1-9,10.92A25.47,25.47,0,0,1,339,108.78Q326.75,108.78,320.12,101.24ZM345,90.85a19.4,19.4,0,0,0,3.77-12.1V74.6A19.4,19.4,0,0,0,345,62.5q-3.76-4.94-10.92-4.93-10.92,0-13.91,10.66V85.12q3,10.66,13.91,10.66Q341.19,95.78,345,90.85Z"/><path class="cls-1" d="M395.26,59.12V84.35c0,3.64.56,6.19,1.69,7.67s3,2.21,5.72,2.21h10.27v13H402.67q-9.1,0-14.37-2.21a14.2,14.2,0,0,1-7.6-7.15q-2.34-5-2.34-13.52V36.64A10.87,10.87,0,0,0,377,30.91a18.93,18.93,0,0,0-4.88-4.8l11.31-9.88q6.63,3.38,9.23,7.73c1.73,2.91,2.6,7,2.6,12.16v10h17.68v13Z"/><path class="cls-1" d="M458.05,94.81a23.93,23.93,0,0,0,6.5-4.36l10,9.11q-7.55,9.22-24.31,9.22-15,0-21.58-5.65T422,84.74V66.15q0-10,7.22-15.8T449,44.57q12.87,0,20.15,6.17t7.28,18a31.08,31.08,0,0,1-1,8.84,7.56,7.56,0,0,1-3.84,4.62q-2.86,1.5-8.32,1.5H438.81v1.17Q438.81,96,450.25,96A20.76,20.76,0,0,0,458.05,94.81ZM441.48,60.1a10.19,10.19,0,0,0-2.67,7.35v4.67h14.82c2.25,0,3.81-.34,4.68-1s1.3-1.9,1.3-3.63q0-4.95-2.73-7.54c-1.82-1.74-4.46-2.6-7.93-2.6Q444.14,57.31,441.48,60.1Z"/><path class="cls-1" d="M533.84,48.2l-4.16,14a20.45,20.45,0,0,0-5.2-2.59,20.18,20.18,0,0,0-6.11-.78q-8.58,0-12.35,11.44v36.92h-16.9V65a10.8,10.8,0,0,0-1.36-5.73,18.93,18.93,0,0,0-4.88-4.8l11.31-9.88a28.89,28.89,0,0,1,7,4.93A15.43,15.43,0,0,1,505,55.74a22.36,22.36,0,0,1,6.89-8.12,17.66,17.66,0,0,1,10.53-3A18.1,18.1,0,0,1,533.84,48.2Z"/><path class="cls-1" d="M588.05,48.2l-4.16,14a20.45,20.45,0,0,0-5.2-2.59,20.22,20.22,0,0,0-6.11-.78q-8.58,0-12.35,11.44v36.92h-16.9V65A10.8,10.8,0,0,0,542,59.25a18.93,18.93,0,0,0-4.88-4.8l11.31-9.88a28.89,28.89,0,0,1,7,4.93,15.43,15.43,0,0,1,3.77,6.24,22.27,22.27,0,0,1,6.89-8.12,17.66,17.66,0,0,1,10.53-3A18.1,18.1,0,0,1,588.05,48.2Z"/><path class="cls-1" d="M646.09,94.1A19.27,19.27,0,0,0,651,98.91l-11.31,9.87q-7.41-3.77-10.14-9.49a23,23,0,0,1-7.8,6.77,25.12,25.12,0,0,1-12.22,2.72q-9.24,0-14.69-4.74t-5.46-13.46q0-7.78,4.09-12a21.26,21.26,0,0,1,9.43-5.78,64.86,64.86,0,0,1,11.83-2.21l6.24-.66a13.55,13.55,0,0,0,5.26-1.29,3.53,3.53,0,0,0,1.63-3A11.31,11.31,0,0,0,625.29,59c-1.51-1.81-4.4-2.72-8.64-2.72a16.09,16.09,0,0,0-7.28,1.55A23.26,23.26,0,0,0,603,62.9l-11.57-8.07a25,25,0,0,1,9.49-7.6q5.72-2.67,15.73-2.66,28.08,0,28.08,22.75V88.37A10.78,10.78,0,0,0,646.09,94.1Zm-21.9-.72a10.6,10.6,0,0,0,3.64-8.13V79.79a38.33,38.33,0,0,1-7.93,1.44l-3.9.39a18.78,18.78,0,0,0-7.41,2c-2,1.08-3,3.1-3,6.05a6.34,6.34,0,0,0,2.21,5.19,9.07,9.07,0,0,0,6,1.83Q620.55,96.7,624.19,93.38Z"/><path class="cls-1" d="M17.33,41.78V82.54a8,8,0,0,0,4,6.93l28.79,16.62a4,4,0,0,1,2,3.47v10.77a4,4,0,0,1-6,3.46L7.5,101.5a15,15,0,0,1-7.5-13V35.83a15,15,0,0,1,7.5-13L46.12.54a4,4,0,0,1,6,3.47V14.76a4,4,0,0,1-2,3.46L21.33,34.85A8,8,0,0,0,17.33,41.78Z"/><path class="cls-1" d="M121.24,35.83V88.51a15,15,0,0,1-7.5,13L75.12,123.79a4,4,0,0,1-6-3.46V109.57a4,4,0,0,1,2-3.47L99.94,89.47a8,8,0,0,0,4-6.93V41.78a8,8,0,0,0-4-6.93L71.12,18.21a4,4,0,0,1-2-3.46V4a4,4,0,0,1,6-3.47l38.62,22.3A15,15,0,0,1,121.24,35.83Z"/></g></g></svg>